<?xml version="1.0" encoding="UTF-8" standalone="no"?>
<!-- Created with Inkscape (http://www.inkscape.org/) -->

<svg
   version="1.1"
   id="svg273"
   width="196.28197"
   height="32.255306"
   viewBox="0 0 196.28197 32.255306"
   sodipodi:docname="header-logo.png"
   xml:space="preserve"
   inkscape:export-filename="header-logo.svg"
   inkscape:export-xdpi="96"
   inkscape:export-ydpi="96"
   inkscape:version="0.0"
   xmlns:inkscape="http://www.inkscape.org/namespaces/inkscape"
   xmlns:sodipodi="http://sodipodi.sourceforge.net/DTD/sodipodi-0.dtd"
   xmlns="http://www.w3.org/2000/svg"
   xmlns:svg="http://www.w3.org/2000/svg"><defs
     id="defs277" /><sodipodi:namedview
     id="namedview275"
     pagecolor="#505050"
     bordercolor="#eeeeee"
     borderopacity="1"
     inkscape:showpageshadow="0"
     inkscape:pageopacity="0"
     inkscape:pagecheckerboard="0"
     inkscape:deskcolor="#505050"
     showgrid="false"
     inkscape:zoom="3.9435593"
     inkscape:cx="3.4233034"
     inkscape:cy="32.711566"
     inkscape:window-width="1920"
     inkscape:window-height="1017"
     inkscape:window-x="1672"
     inkscape:window-y="-8"
     inkscape:window-maximized="1"
     inkscape:current-layer="g279" /><g
     inkscape:groupmode="layer"
     inkscape:label="Image"
     id="g279"
     transform="translate(-6.1391081,-0.59947014)"><text
       xml:space="preserve"
       style="font-size:41.556px;fill:#000000;stroke-width:3.463"
       x="49.370434"
       y="31.144203"
       id="text416"><tspan
         sodipodi:role="line"
         id="tspan414"
         x="49.370434"
         y="31.144203"
         style="font-style:normal;font-variant:normal;font-weight:normal;font-stretch:normal;font-family:HelveticaNeueW01-66MediumIt;-inkscape-font-specification:HelveticaNeueW01-66MediumIt;stroke-width:3.463">Installer</tspan></text><path
       style="fill:#000000;stroke-width:0.20758"
       d="M 18.186384,32.422274 C 12.42605,30.914399 8.0130706,26.442521 6.5410646,20.621525 5.9022446,18.095336 6.0394306,14.157897 6.8490006,11.783271 8.5520126,6.7880086 12.31386,3.0165723 17.252124,1.3536293 c 1.525088,-0.51356801 1.931741,-0.74978151 4.981917,-0.75409651 3.109084,-0.0044 3.427375,0.2225835 4.981917,0.76612651 5.074184,1.774189 8.691216,5.3962563 10.403123,10.4176117 0.80957,2.374626 0.946755,6.312065 0.307937,8.838254 -1.476425,5.838466 -5.938987,10.331968 -11.730269,11.811597 -2.217006,0.56643 -5.82373,0.561545 -8.010365,-0.01086 z m 8.199255,-1.237369 c 4.325385,-1.336667 7.44244,-4.001609 9.339363,-7.984741 1.172505,-2.462011 1.448885,-3.689501 1.448885,-6.434976 0,-2.745475 -0.27638,-3.972964 -1.448885,-6.434976 C 33.8113,6.3118476 30.708253,3.6768573 26.281849,2.3114413 c -1.839007,-0.56728 -5.58069,-0.67321 -7.472876,-0.211564 -1.620477,0.395356 -4.669555,1.917886 -6.07001,3.031006 -3.2814884,2.6082153 -5.5544634,7.3691597 -5.5544634,11.6343047 0,4.265146 2.272975,9.026088 5.5544634,11.634304 1.554596,1.235636 4.551845,2.687012 6.38138,3.090095 1.980271,0.436291 5.320873,0.296197 7.265296,-0.304682 z M 18.860868,30.78548 c -0.713556,-0.337569 -1.297374,-0.736541 -1.297374,-0.886605 0,-0.150066 0.6183,-1.718666 1.374001,-3.485779 0.755701,-1.767113 1.472575,-3.707051 1.593053,-4.310975 0.16344,-0.819277 0.302084,-1.082214 0.546113,-1.035697 0.510651,0.09734 0.518026,2.610774 0.01803,6.142899 -0.521851,3.686481 -0.617712,4.190294 -0.797253,4.190083 -0.07655,-9e-5 -0.72301,-0.276356 -1.436566,-0.613926 z m 3.321278,0.350044 C 21.263851,30.95899 21.092352,30.854635 21.092352,30.4724 c 0,-0.562625 0.538068,-4.554984 0.840229,-6.234336 0.14882,-0.82711 0.157341,-1.541825 0.02537,-2.127694 -0.189588,-0.841641 -0.176562,-0.882214 0.283216,-0.882214 0.438222,0 0.521276,0.174191 0.91551,1.920114 0.238462,1.056062 0.600902,3.34463 0.805422,5.085706 l 0.371855,3.165594 -0.531006,-0.02727 c -0.292053,-0.015 -1.021413,-0.121549 -1.6208,-0.236776 z m 2.435365,-0.697749 c -0.01298,-1.359378 -1.027373,-7.971553 -1.305435,-8.509268 -0.35706,-0.690476 -0.289828,-0.907931 0.28071,-0.907931 0.423465,0 2.190184,3.483041 3.5156,6.930915 0.975574,2.537808 0.95915,2.607256 -0.618957,2.617415 -0.513761,0.0033 -1.144284,0.06234 -1.401164,0.13118 -0.361595,0.0969 -0.467891,0.03767 -0.470754,-0.262311 z m -9.288082,-1.025451 c -0.597967,-0.523086 -1.087213,-1.020493 -1.087213,-1.105348 0,-0.08485 1.118089,-1.593036 2.484642,-3.351516 1.366554,-1.758482 2.541377,-3.455547 2.610719,-3.77126 0.150029,-0.683075 0.323264,-0.82205 0.719471,-0.57718 0.251273,0.155295 0.239058,0.402891 -0.08381,1.698836 -0.42018,1.686523 -3.016723,7.88695 -3.346431,7.99113 -0.115589,0.03652 -0.699407,-0.361575 -1.297374,-0.884662 z m 12.236642,-1.385927 c -0.342505,-0.827725 -0.974668,-2.392358 -1.404805,-3.476963 -0.430137,-1.084605 -1.046025,-2.316822 -1.368642,-2.738261 -0.682625,-0.891726 -0.719958,-1.109486 -0.223309,-1.30256 0.46309,-0.180028 1.798122,1.261943 4.66914,5.043153 1.6685,2.19746 2.039609,2.805918 1.803562,2.957059 -0.366867,0.234903 -2.425638,1.022526 -2.672786,1.022526 -0.09923,0 -0.460653,-0.67723 -0.80316,-1.504954 z m -14.937016,-0.31137 c -1.226339,-1.564563 -1.246742,-1.710243 -0.34829,-2.486892 0.438502,-0.379056 1.84709,-1.481658 3.130197,-2.450227 1.283107,-0.96857 2.569584,-2.063436 2.858838,-2.433034 0.469925,-0.600452 0.559417,-0.638497 0.840575,-0.357338 0.281159,0.281158 0.198989,0.494522 -0.771796,2.004065 -1.167482,1.8154 -4.733167,6.483438 -4.961135,6.494901 -0.07603,0.0038 -0.412808,-0.343342 -0.748389,-0.771475 z m 16.247542,-3.306239 c -1.255858,-1.668712 -2.6361,-3.318123 -3.067203,-3.665358 -0.68165,-0.549039 -0.744921,-0.67024 -0.485377,-0.929784 0.259545,-0.259544 0.469955,-0.195721 1.614145,0.489617 1.790873,1.072684 7.024964,5.130461 6.949756,5.38786 -0.07865,0.269167 -2.21107,1.766386 -2.50392,1.758056 -0.123213,-0.0035 -1.251542,-1.371681 -2.507401,-3.040391 z m -18.745868,0.394937 c -0.8734214,-2.031403 -0.8856884,-1.991291 0.826131,-2.70132 0.83651,-0.346967 2.408331,-0.978375 3.492936,-1.403128 1.084605,-0.424753 2.316822,-1.039984 2.738261,-1.367179 0.889857,-0.690865 1.10889,-0.729816 1.302559,-0.231636 0.176909,0.455066 -1.279386,1.818406 -4.725363,4.423741 -3.353963,2.535769 -3.128514,2.456401 -3.634524,1.279522 z m 20.302717,-2.53767 c -1.762959,-1.370027 -3.272083,-2.490959 -3.353606,-2.490959 -0.08152,0 -0.391592,-0.09253 -0.689041,-0.205618 -0.445723,-0.169463 -0.50442,-0.273625 -0.333821,-0.592392 0.201579,-0.376654 0.246609,-0.37619 1.720887,0.01773 1.738523,0.464522 7.881324,3.062865 7.985093,3.377614 0.07231,0.219344 -1.724185,2.384587 -1.978489,2.384587 -0.0801,0 -1.588063,-1.120932 -3.351023,-2.490959 z M 8.5492126,22.00658 c -0.236119,-1.145709 -0.25759,-2.686016 -0.03856,-2.765924 0.12688,-0.04629 1.9591024,-0.304304 4.0716034,-0.573367 2.208571,-0.281299 4.116148,-0.631536 4.488545,-0.82411 0.681458,-0.352396 0.907981,-0.289009 0.907643,0.25398 -2.9e-4,0.463307 -2.667904,1.854335 -6.187899,3.22668 -1.622042,0.632389 -2.9932484,1.149796 -3.0471244,1.149796 -0.05388,0 -0.141272,-0.210175 -0.194213,-0.467055 z M 31.588327,19.971598 c -1.819448,-0.790872 -3.746231,-1.496072 -4.281741,-1.56711 -0.822978,-0.109172 -0.957799,-0.189793 -0.871196,-0.520965 0.09001,-0.344212 0.311175,-0.391805 1.820699,-0.391805 1.527663,0 8.336881,0.900833 8.569798,1.13375 0.05019,0.05019 -0.195035,0.703029 -0.54494,1.450759 -0.446932,0.955071 -0.747502,1.355613 -1.010362,1.346415 -0.205795,-0.0072 -1.86281,-0.660171 -3.682258,-1.451044 z m -11.307208,-0.02286 c -1.419947,-0.973496 -2.003317,-2.367023 -1.649719,-3.940774 0.383497,-1.706819 1.796618,-2.875426 3.477068,-2.875426 3.587706,0 5.152558,4.615032 2.262612,6.672854 -1.020355,0.726558 -3.131367,0.800544 -4.089961,0.143346 z m 0.933475,-1.850209 c -0.314048,-0.373225 -0.537402,-0.89479 -0.537402,-1.254915 0,-1.422156 2.076512,-2.253195 2.814757,-1.126491 0.578378,0.882716 -0.18479,1.978456 -1.161959,1.668314 -0.564641,-0.17921 -0.523033,-0.877887 0.05974,-1.003081 0.414138,-0.08897 0.408498,-0.09648 -0.04977,-0.06633 -0.905029,0.05954 -0.71088,1.383272 0.202882,1.383272 0.56495,0 1.455636,-0.81087 1.455636,-1.325194 0,-1.334096 -2.032996,-1.888884 -3.01982,-0.824084 -0.887476,0.957603 -0.456685,2.900634 0.702999,3.170789 0.03869,0.009 -0.171483,-0.271012 -0.467055,-0.622278 z m -13.6149354,0.42587 c 0,-0.860317 0.509226,-2.742446 0.768958,-2.842115 0.158875,-0.06097 1.9424264,0.129638 3.9634464,0.423565 2.609435,0.379503 3.930308,0.485385 4.556796,0.365274 0.830648,-0.159253 0.882215,-0.141308 0.882215,0.306997 0,0.430897 -0.182435,0.51733 -1.920114,0.909702 -1.056063,0.238462 -3.344631,0.600902 -5.085707,0.805422 -2.9223274,0.343279 -3.1655944,0.345673 -3.1655944,0.03116 z M 33.754724,17.687767 c -0.627929,-0.099 -2.081953,-0.328067 -3.231163,-0.509031 -1.49685,-0.235705 -2.335813,-0.273675 -2.958013,-0.133876 -0.822086,0.18471 -0.868539,0.169922 -0.868539,-0.276501 0,-0.407693 0.189996,-0.521351 1.401164,-0.838193 0.77064,-0.201599 3.059208,-0.567121 5.085707,-0.812271 l 3.684543,-0.445727 -0.01993,0.527561 c -0.01096,0.290158 -0.12788,0.994615 -0.259822,1.565459 -0.229232,0.991774 -0.272166,1.039337 -0.966076,1.070243 -0.399401,0.01779 -1.239943,-0.04866 -1.867873,-0.147664 z M 10.834117,15.502333 C 9.1309156,15.226105 7.6954376,14.958151 7.6441656,14.906879 c -0.195086,-0.195085 1.190028,-2.812238 1.488363,-2.812238 0.170061,0 1.8330134,0.649364 3.6954494,1.44303 1.862435,0.793667 3.787657,1.506893 4.27827,1.584948 0.666457,0.106031 0.875813,0.226672 0.827915,0.477084 -0.104605,0.546882 -3.406866,0.501595 -7.100046,-0.09737 z m 15.597449,0.129897 c -0.09285,-0.355044 0.162624,-0.572337 1.582315,-1.345851 1.900672,-1.035576 7.591233,-3.316659 7.786603,-3.121289 0.179223,0.179222 0.407114,2.871976 0.257555,3.043239 -0.06805,0.07792 -1.758417,0.339671 -3.756374,0.581661 -3.008719,0.364411 -4.508056,0.685435 -5.629149,1.205262 -0.07163,0.03321 -0.180052,-0.130149 -0.24095,-0.363022 z m -0.331397,-0.896182 c -0.128414,-0.128414 -0.23348,-0.343465 -0.23348,-0.477891 0,-0.350408 2.608015,-2.622056 5.465329,-4.7604404 1.955934,-1.4638 2.494126,-1.777164 2.645689,-1.540457 0.231516,0.361575 1.022497,2.4240244 1.022497,2.6661174 0,0.09559 -1.517928,0.797788 -3.373173,1.56044 -4.075092,1.675184 -4.118113,1.69594 -4.772082,2.302335 -0.386085,0.357998 -0.581859,0.422816 -0.75478,0.249896 z M 16.318015,14.446513 C 14.863874,14.057456 8.7970396,11.436747 8.7051246,11.15795 8.6338346,10.941706 10.427654,8.7732196 10.67756,8.7735436 c 0.07677,9.9e-5 1.540752,1.084014 3.253286,2.4087014 1.712534,1.324686 3.347226,2.495013 3.632648,2.600726 0.285422,0.105714 0.634139,0.232605 0.774925,0.28198 0.4122,0.144563 0.05314,0.730181 -0.433869,0.707626 -0.244665,-0.01133 -0.958606,-0.15806 -1.586535,-0.326064 z m 1.063413,-1.304476 C 15.55146,12.027591 10.504456,8.0929716 10.579456,7.8392526 c 0.07889,-0.266862 2.209225,-1.765297 2.504629,-1.761702 0.123212,0.0015 1.251153,1.370011 2.506535,3.041135 1.255382,1.6711254 2.632272,3.3194824 3.059754,3.6630164 0.603987,0.485378 0.72576,0.686638 0.546293,0.902883 -0.311088,0.374838 -0.306697,0.37615 -1.815239,-0.542548 z m 7.882822,0.533914 c -0.223752,-0.269604 -0.140589,-0.531545 0.516231,-1.625978 1.028077,-1.713046 5.044673,-6.9092587 5.340756,-6.9092587 0.259266,0 1.803168,2.1234123 1.803168,2.4799943 0,0.126223 -1.355256,1.241487 -3.011681,2.4783634 -1.656423,1.236876 -3.319946,2.619978 -3.696717,3.073561 -0.599965,0.722279 -0.718161,0.784784 -0.951757,0.503318 z M 18.154927,11.627586 C 17.414185,10.799862 15.980311,9.0176926 14.968541,7.6672106 13.503292,5.7114393 13.189426,5.1730723 13.426113,5.0215223 c 0.513575,-0.328841 2.524438,-1.041195 2.738092,-0.969977 0.112317,0.03744 0.831803,1.63947 1.598858,3.5600693 0.767055,1.9206 1.643118,3.8034004 1.946808,4.1840024 0.303688,0.380601 0.552161,0.78041 0.552161,0.888464 0,0.156787 -0.460798,0.448459 -0.708497,0.448459 -0.02849,0 -0.657865,-0.677229 -1.398608,-1.504954 z m 6.124002,1.287222 c -0.322494,-0.322495 0.440328,-2.832732 1.889325,-6.2172444 1.612205,-3.7657253 1.499132,-3.5796013 2.008895,-3.3067843 0.543201,0.290712 2.048717,1.646861 2.048717,1.845457 0,0.08305 -1.111442,1.5807913 -2.469874,3.3283113 -1.358431,1.7475204 -2.550818,3.4595414 -2.649748,3.8044924 -0.199062,0.69409 -0.488232,0.884851 -0.827315,0.545768 z M 23.323836,12.55131 c -0.311097,-0.06162 -0.363265,-0.319996 -0.363265,-1.799181 0,-1.5342534 0.90011,-8.3451477 1.13375,-8.5787877 0.193727,-0.193727 2.810267,1.19387 2.810267,1.490334 0,0.170061 -0.6487,1.833013 -1.441555,3.6954493 -0.792856,1.862435 -1.516791,3.8087724 -1.608744,4.3251914 -0.131355,0.737701 -0.245047,0.923524 -0.530453,0.866994 z m -3.61266,-1.650458 C 18.675161,8.9680986 16.444395,3.3882923 16.632504,3.2001823 c 0.172192,-0.172192 3.019437,-0.386528 3.113471,-0.234377 0.03918,0.0634 0.269605,1.74633 0.512046,3.7398413 0.368301,3.028412 0.662852,4.3976504 1.214894,5.6474974 0.03806,0.08616 -0.148766,0.156565 -0.41516,0.156452 -0.391493,-1.65e-4 -0.649659,-0.308594 -1.346579,-1.608744 z m 1.687843,2.05e-4 C 20.91537,9.0522426 20.079761,2.1308063 20.340208,2.1308063 c 0.846527,0 2.879592,0.515801 2.970896,0.753734 0.113199,0.294994 -0.103466,2.113968 -0.677573,5.6884223 -0.227685,1.417594 -0.262097,2.2274814 -0.121278,2.8542244 0.186325,0.829268 0.171939,0.875034 -0.275041,0.875034 -0.407693,0 -0.521351,-0.189996 -0.838193,-1.401164 z"
       id="path1555"
       sodipodi:nodetypes="csssscsssccssssssssssssssssssssssssssscssssssssssssssssssssssssssssssssscsssssssssssssssssssssssscssssssccsssssssssssssssssssssscssssssssssssssssscsssssssssssssssssssssssssssssssssssscsssssssssssssssssssssssssssssssssssssssssssssssss" /><path
       style="fill:#7f00ff;fill-opacity:1;stroke-width:0.179307"
       d="m 49.667969,31.031663 c 0,-0.04293 1.371696,-6.648054 3.048214,-14.678048 1.676518,-8.0299934 3.048215,-14.6516302 3.048215,-14.714748 0,-0.063118 1.129633,-0.1147597 2.510294,-0.1147597 1.380662,0 2.510295,0.035847 2.510295,0.07966 0,0.043813 -1.371697,6.6529272 -3.048215,14.6869207 -1.676518,8.033993 -3.048214,14.654908 -3.048214,14.713146 0,0.05824 -1.129633,0.105886 -2.510295,0.105886 -1.380662,0 -2.510294,-0.03513 -2.510294,-0.07806 z"
       id="path1448" /><path
       style="fill:#7f00ff;fill-opacity:1;stroke-width:0.179307"
       d="m 60.60568,30.913812 c 0,-0.107751 0.968257,-4.874223 2.151681,-10.59216 1.183425,-5.717938 2.151681,-10.4307168 2.151681,-10.4728424 0,-0.042126 0.969794,-0.076592 2.155097,-0.076592 2.142916,0 2.154572,0.00228 2.062156,0.4034404 -0.468236,2.032512 -0.583074,2.63305 -0.516277,2.699847 0.04276,0.04276 0.581329,-0.425835 1.196818,-1.041323 1.934967,-1.9349675 3.91247,-2.6794859 6.830073,-2.5714844 1.582975,0.058597 1.958769,0.1368931 2.890485,0.6022238 2.018101,1.0079106 2.879851,2.8111386 2.731559,5.7158456 -0.06667,1.305904 -2.104579,11.785016 -2.936426,15.09936 -0.106503,0.424342 -0.134987,0.429593 -2.329718,0.429593 -1.328736,0 -2.221896,-0.07051 -2.221896,-0.175399 0,-0.09647 0.654838,-3.30382 1.455196,-7.127444 1.88988,-9.028704 1.899883,-9.761376 0.145819,-10.68133 -0.916419,-0.480634 -3.372325,-0.367368 -4.469923,0.206152 -1.8401,0.961495 -3.151409,2.486075 -3.916529,4.553513 -0.209728,0.566709 -0.862767,3.350446 -1.451197,6.186083 -0.58843,2.835638 -1.161172,5.579317 -1.27276,6.097065 l -0.202886,0.94136 h -2.226477 c -1.49057,0 -2.226476,-0.06475 -2.226476,-0.195908 z"
       id="path1450" /><path
       style="fill:#7f00ff;fill-opacity:1;stroke-width:0.179307"
       d="m 91.17748,31.519517 c -4.066029,-0.562308 -6.294384,-2.624308 -6.664683,-6.167142 l -0.110406,-1.056311 h 2.153905 2.153905 l 0.09326,0.827364 c 0.227995,2.022771 2.225495,3.103106 5.343485,2.889993 2.515768,-0.17195 3.933848,-1.254284 3.933848,-3.002465 0,-1.509067 -1.005795,-2.258376 -4.378791,-3.262164 -2.174605,-0.647152 -4.177136,-1.54371 -5.125274,-2.294649 -2.162381,-1.712638 -2.257965,-5.574643 -0.190504,-7.697226 1.023126,-1.050405 2.674755,-1.9215989 4.293491,-2.2647131 1.525517,-0.3233548 4.616607,-0.3229399 6.144122,8.247e-4 2.953952,0.6261074 4.732952,2.5022574 4.951232,5.2216454 l 0.0926,1.153973 h -2.17623 c -2.090856,0 -2.176222,-0.01476 -2.176222,-0.376342 0,-0.746809 -0.576976,-1.603804 -1.407429,-2.090481 -0.703954,-0.412545 -1.072511,-0.492248 -2.550784,-0.551623 -1.45031,-0.05825 -1.860963,-0.01056 -2.555869,0.29683 -1.015644,0.449267 -1.553118,1.253835 -1.554051,2.326326 -0.0011,1.328784 0.653969,1.75698 4.566474,2.984685 5.004021,1.570215 6.631081,3.111363 6.636701,6.286289 0.002,1.183113 -0.0813,1.613424 -0.4761,2.455875 -0.97985,2.091011 -3.029206,3.50143 -5.969343,4.108256 -1.487217,0.306952 -3.671016,0.39863 -5.027363,0.211055 z"
       id="path1452" /><path
       style="fill:#7f00ff;fill-opacity:1;stroke-width:0.179307"
       d="m 110.15535,31.117321 c -1.53042,-0.364656 -2.47518,-1.417138 -2.66971,-2.974114 -0.15576,-1.246713 -0.11204,-1.521572 1.36782,-8.598772 0.68051,-3.254417 1.2381,-6.017982 1.23909,-6.141256 10e-4,-0.164484 -0.4754,-0.224133 -1.79128,-0.224133 -2.0587,0 -1.9342,0.167951 -1.46211,-1.972374 l 0.29662,-1.344801 1.886,-0.050471 1.88601,-0.050472 0.60903,-2.9977431 c 0.33497,-1.6487589 0.64471,-3.0986033 0.6883,-3.2218767 0.0576,-0.1627195 0.67838,-0.2241334 2.26577,-0.2241334 h 2.1865 l -0.56108,2.7344279 c -0.30859,1.5039353 -0.61684,2.95632 -0.68499,3.2275214 l -0.12391,0.4930936 h 2.15509 c 1.18531,0 2.1551,0.035337 2.1551,0.078527 0,0.067724 -0.10441,0.5493403 -0.6341,2.9248613 -0.0872,0.390927 -0.15659,0.40344 -2.23822,0.40344 -1.18155,0 -2.14827,0.03346 -2.14827,0.07435 0,0.04089 -0.56482,2.762302 -1.25515,6.047576 -0.69033,3.285273 -1.25514,6.342884 -1.25514,6.794688 0,1.37479 0.21726,1.517579 2.3091,1.517579 1.70718,0 1.79527,0.01839 1.71768,0.358613 -0.045,0.197238 -0.19845,0.874628 -0.34104,1.505313 -0.14259,0.630684 -0.3242,1.209608 -0.40357,1.286497 -0.19455,0.188468 -2.74516,0.529837 -3.78824,0.507011 -0.4613,-0.01009 -1.09369,-0.0791 -1.4053,-0.153352 z"
       id="path1454" /><path
       style="fill:#7f00ff;fill-opacity:1;stroke-width:0.179307"
       d="m 109.40729,30.737435 c -1.08816,-0.556079 -1.69303,-1.53507 -1.79176,-2.899995 -0.0915,-1.264745 0.0124,-1.901214 1.42453,-8.727331 0.57986,-2.802966 1.05428,-5.284123 1.05428,-5.513682 0,-0.393323 -0.0659,-0.417381 -1.14308,-0.417381 -0.62869,0 -1.40456,-0.0523 -1.72414,-0.116213 -0.57378,-0.114756 -0.57968,-0.126327 -0.47051,-0.922864 0.0608,-0.443658 0.19177,-1.108193 0.29101,-1.476745 l 0.18043,-0.6700954 1.7828,-0.071606 c 0.98053,-0.039384 1.83481,-0.1236245 1.89839,-0.1872022 0.0636,-0.063578 0.39821,-1.4729283 0.74363,-3.1318905 0.34543,-1.658962 0.64274,-3.0321119 0.66069,-3.0514443 0.018,-0.019332 0.98749,-0.092236 2.15453,-0.1620076 l 2.12188,-0.1268579 -0.10785,0.5206212 c -0.0593,0.2863416 -0.35086,1.6458014 -0.64787,3.0210216 -0.29701,1.3752203 -0.54001,2.5935821 -0.54001,2.7074705 0,0.1369656 0.67967,0.2483504 2.00758,0.3290017 1.10417,0.067062 2.04003,0.1543864 2.0797,0.1940539 0.0397,0.03967 -0.0663,0.712608 -0.2354,1.495426 l -0.30753,1.423305 -1.08125,0.113014 c -0.59469,0.06216 -1.57609,0.113013 -2.18088,0.113013 h -1.09963 l -1.20506,5.962443 c -0.66278,3.279344 -1.20505,6.421603 -1.20505,6.982796 0,1.392941 0.28052,1.578607 2.38513,1.578607 h 1.58811 l -0.1163,0.582747 c -0.33749,1.691028 -0.63504,2.425459 -1.0317,2.54655 -0.22253,0.06793 -1.37286,0.163711 -2.55628,0.212839 -1.96757,0.08168 -2.21815,0.05536 -2.92839,-0.307594 z"
       id="path1456" /><path
       style="fill:#7f00ff;fill-opacity:1;stroke-width:0.179307"
       d="m 109.40729,30.737435 c -0.441,-0.225362 -0.98262,-0.70807 -1.25311,-1.11681 -0.85724,-1.295375 -0.78262,-2.354572 0.67083,-9.522329 0.69813,-3.442888 1.26933,-6.408174 1.26933,-6.589523 0,-0.285617 -0.15292,-0.329727 -1.14308,-0.329727 -0.62869,0 -1.40456,-0.0523 -1.72414,-0.116213 -0.57378,-0.114756 -0.57968,-0.126327 -0.47051,-0.922864 0.0608,-0.443658 0.19177,-1.108193 0.29101,-1.476745 l 0.18043,-0.6700954 1.7828,-0.071606 c 0.98053,-0.039384 1.83024,-0.1190606 1.88824,-0.1770602 0.058,-0.058 0.39583,-1.4766158 0.75073,-3.1524805 l 0.64528,-3.0470266 1.34731,-0.11389 c 1.53476,-0.1297342 2.90697,-0.1488418 2.90697,-0.040479 0,0.040376 -0.2824,1.4137277 -0.62757,3.051892 -0.34516,1.6381642 -0.62757,3.0453829 -0.62757,3.1271525 0,0.08177 0.90341,0.2035413 2.00758,0.2706038 1.10417,0.067062 2.04003,0.1543864 2.0797,0.1940534 0.0397,0.03967 -0.0663,0.712608 -0.2354,1.495426 l -0.30753,1.423305 -1.08125,0.113014 c -0.59469,0.06216 -1.57509,0.113013 -2.17866,0.113013 h -1.0974 l -1.15348,5.692989 c -0.78037,3.851525 -1.15638,6.125438 -1.16245,7.029929 -0.008,1.249596 0.0203,1.351923 0.43929,1.566291 0.25686,0.131423 1.0884,0.230479 1.9475,0.231994 l 1.49924,0.0026 -0.1151,0.613495 c -0.28753,1.532672 -0.64564,2.393922 -1.04628,2.516313 -0.22145,0.06765 -1.3709,0.1632 -2.55432,0.212328 -1.96757,0.08168 -2.21815,0.05536 -2.92839,-0.307593 z"
       id="path1458" /><path
       style="fill:#7f00ff;fill-opacity:1;stroke-width:0.179307"
       d="m 109.76176,30.929815 c -1.49704,-0.641943 -2.16773,-1.748363 -2.17349,-3.585536 -0.002,-0.749061 0.44471,-3.367679 1.25121,-7.328858 0.69017,-3.38985 1.25486,-6.314792 1.25486,-6.49987 0,-0.293946 -0.14457,-0.336505 -1.14308,-0.336505 -0.62869,0 -1.40456,-0.0523 -1.72414,-0.116213 -0.57378,-0.114756 -0.57968,-0.126327 -0.47051,-0.922864 0.0608,-0.443658 0.19138,-1.106777 0.29016,-1.473597 l 0.17959,-0.6669465 1.79534,-0.086452 c 0.98743,-0.047548 1.83341,-0.1245253 1.87994,-0.1710599 0.0465,-0.046535 0.37577,-1.4506217 0.73163,-3.1201936 0.35586,-1.6695719 0.66501,-3.0545656 0.68701,-3.0777635 0.0992,-0.1046496 4.2291,-0.2688381 4.2291,-0.168133 0,0.062317 -0.28247,1.4539149 -0.62771,3.0924402 -0.34524,1.6385253 -0.58999,3.040163 -0.5439,3.1147501 0.0461,0.074587 0.95083,0.1916671 2.01052,0.2601773 1.05968,0.06851 1.95789,0.1557611 1.99602,0.1938909 0.0381,0.03813 -0.0691,0.71021 -0.23838,1.493513 l -0.30772,1.424186 -0.92028,0.110574 c -0.50615,0.06081 -1.48645,0.111275 -2.17843,0.112132 l -1.25815,0.0016 -1.12604,5.603336 c -0.61932,3.081834 -1.17003,6.168152 -1.2238,6.858483 -0.14259,1.83039 -0.008,1.956039 2.1785,2.035076 l 1.73466,0.0627 -0.11174,0.595621 c -0.28421,1.514984 -0.64385,2.376524 -1.04293,2.498438 -0.69866,0.213433 -4.68111,0.288849 -5.12824,0.09712 z"
       id="path1460" /><path
       style="fill:#7f00ff;fill-opacity:1;stroke-width:0.179307"
       d="m 109.76176,30.930593 c -1.49717,-0.644757 -2.16756,-1.749413 -2.17377,-3.581884 -0.003,-0.741582 0.45326,-3.422194 1.26151,-7.419532 0.696,-3.442157 1.22301,-6.369092 1.17112,-6.504299 -0.0669,-0.174438 -0.44746,-0.246543 -1.31028,-0.248281 -0.66877,-0.0013 -1.40684,-0.05354 -1.64015,-0.115995 -0.38925,-0.104192 -0.41509,-0.180026 -0.31361,-0.920415 0.0608,-0.443778 0.19103,-1.105573 0.28934,-1.470656 l 0.17874,-0.663787 1.81729,-0.1107139 c 0.99951,-0.060893 1.84301,-0.1364313 1.87444,-0.1678633 0.0314,-0.031432 0.35108,-1.4260226 0.71033,-3.0990904 0.35925,-1.6730679 0.67483,-3.0644786 0.70127,-3.092024 0.10646,-0.1108864 4.22139,-0.2655063 4.22139,-0.1586201 0,0.063314 -0.2808,1.4576491 -0.62401,3.0985231 -0.34321,1.6408741 -0.5882,3.0413587 -0.54443,3.1121881 0.0438,0.07083 0.94325,0.1816243 1.99884,0.2462108 1.05558,0.064586 1.95327,0.1514629 1.99486,0.1930587 0.0828,0.08278 -0.45274,2.811264 -0.57595,2.934474 -0.0419,0.04186 -1.02903,0.128013 -2.19372,0.191458 l -2.11761,0.115354 -1.11707,5.556495 c -0.61439,3.056073 -1.16603,6.122218 -1.22586,6.813657 -0.15741,1.819146 -0.0331,1.93624 2.15824,2.03208 l 1.74042,0.07612 -0.11095,0.591417 c -0.2438,1.299572 -0.6561,2.381548 -0.9531,2.501164 -0.52864,0.212907 -4.7627,0.286729 -5.21728,0.09096 z"
       id="path1462" /><path
       style="fill:#7f00ff;fill-opacity:1;stroke-width:0.179307"
       d="m 109.46677,30.785545 c -1.30533,-0.623163 -1.88272,-1.684537 -1.88272,-3.460861 0,-0.651791 0.52113,-3.723582 1.2674,-7.470598 0.69707,-3.500005 1.20137,-6.426061 1.12066,-6.502346 -0.0807,-0.07629 -0.80599,-0.166827 -1.61175,-0.201205 -0.80576,-0.03438 -1.52567,-0.123154 -1.59979,-0.197278 -0.0741,-0.07413 -0.02,-0.759667 0.12022,-1.523426 0.21294,-1.159657 0.31413,-1.39452 0.6136,-1.424227 0.19724,-0.019566 1.05357,-0.086404 1.90296,-0.148528 l 1.54433,-0.112953 0.67238,-3.1012384 0.67238,-3.1012382 0.92115,-0.1106773 c 0.50664,-0.060872 1.47221,-0.1113786 2.14572,-0.1122357 l 1.22457,-0.00156 -0.10455,0.4930936 c -0.7893,3.7225719 -1.12156,5.7073846 -0.971,5.8004355 0.0973,0.060135 0.99268,0.1627972 1.98973,0.2281375 0.99705,0.06534 1.84553,0.151516 1.88551,0.191501 0.0849,0.08493 -0.46149,2.814155 -0.58894,2.941597 -0.0474,0.04739 -1.03455,0.133542 -2.19371,0.191458 l -2.10756,0.105302 -1.03017,5.110242 c -1.17189,5.813244 -1.48809,7.834768 -1.32631,8.479368 0.15021,0.598451 0.90281,0.844583 2.5825,0.844583 h 1.338 l -0.1151,0.613495 c -0.24774,1.320558 -0.65833,2.402857 -0.95724,2.523244 -0.17181,0.06919 -1.32098,0.162373 -2.55371,0.207061 -1.94373,0.07047 -2.33657,0.03579 -2.95856,-0.261147 z"
       id="path1464" /><path
       style="fill:#7f00ff;fill-opacity:1;stroke-width:0.179307"
       d="m 123.94932,31.458641 c -1.9378,-0.38246 -3.65712,-1.66753 -4.37067,-3.26677 -0.47839,-1.072201 -0.56786,-3.092243 -0.19369,-4.373226 0.30883,-1.057269 1.26018,-2.368097 2.28965,-3.15482 1.67821,-1.282483 3.52138,-1.742446 8.70747,-2.172947 3.45666,-0.28694 4.08637,-0.477778 4.5528,-1.379759 0.45285,-0.875722 0.53282,-2.161784 0.18057,-2.904098 -0.48963,-1.031799 -1.24536,-1.296935 -3.69674,-1.296935 -1.95311,0 -2.13684,0.03164 -3.12402,0.53792 -0.89054,0.456722 -1.13215,0.69313 -1.60063,1.566155 l -0.55176,1.028235 -2.11027,0.0028 -2.11027,0.0028 0.11136,-0.493094 c 0.23779,-1.052931 1.16446,-2.764595 1.95323,-3.607856 1.73594,-1.855856 4.33461,-2.7147043 8.19999,-2.7100562 3.41732,0.00411 5.48908,0.6485101 6.81951,2.1211392 1.20902,1.33824 1.15829,2.883619 -0.32169,9.800109 -1.51481,7.079246 -1.51764,7.018437 0.31821,6.851969 0.70731,-0.06414 1.0362,-0.02952 1.0362,0.109074 0,0.111669 -0.13346,0.824112 -0.29659,1.583207 l -0.29658,1.38017 -1.54131,0.282878 c -2.01161,0.369191 -2.43871,0.357118 -3.37342,-0.09537 -0.76257,-0.369156 -1.48506,-1.359672 -1.48506,-2.035985 0,-0.39386 -0.11523,-0.352626 -0.96854,0.346604 -1.94416,1.593092 -5.45768,2.404882 -8.12775,1.877894 z m 6.41862,-3.965611 c 1.17069,-0.536492 2.18668,-1.518546 2.78085,-2.687979 0.48434,-0.953259 1.15196,-3.230677 1.15196,-3.92962 v -0.46928 l -0.8517,0.420052 c -0.65906,0.325037 -1.46605,0.481394 -3.56764,0.691238 -4.70295,0.469589 -6.15754,1.346661 -6.15908,3.713744 -5.8e-4,0.891049 0.0719,1.107481 0.55581,1.658575 0.74821,0.85216 1.83168,1.182241 3.65722,1.114169 1.07524,-0.0401 1.68441,-0.168036 2.43258,-0.510899 z"
       id="path1466" /><path
       style="fill:#7f00ff;fill-opacity:1;stroke-width:0.179307"
       d="m 142.19903,30.795934 c 0.005,-0.172583 1.36034,-6.809174 3.01226,-14.74798 l 3.00348,-14.4341933 2.29811,-0.050339 2.29811,-0.050339 -0.10027,0.4089528 c -0.0551,0.224924 -1.3612,6.5008995 -2.90234,13.9466125 -1.54114,7.445713 -2.88377,13.920928 -2.98363,14.389366 l -0.18155,0.851707 h -2.22647 c -2.00426,0 -2.2256,-0.03132 -2.2177,-0.313787 z"
       id="path1468" /><path
       style="fill:#7f00ff;fill-opacity:1;stroke-width:0.179307"
       d="m 152.77198,27.927026 c 0.36319,-1.750482 1.74167,-8.407019 3.06329,-14.792304 l 2.40293,-11.6096087 2.29825,-5.03e-4 c 2.10401,-4.604e-4 2.29056,0.026017 2.20738,0.3132838 -0.11666,0.4029139 -6.02973,28.9896769 -6.02973,29.1507749 0,0.06658 -1.03556,0.121051 -2.30123,0.121051 h -2.30123 z"
       id="path1470" /><path
       style="fill:#7f00ff;fill-opacity:1;stroke-width:0.179307"
       d="m 169.89314,31.362496 c -3.14084,-0.702714 -5.53783,-2.952337 -6.47855,-6.080245 -0.46277,-1.538696 -0.42147,-4.711022 0.0864,-6.634349 0.50562,-1.914951 1.80592,-4.46322 2.90894,-5.700775 1.10986,-1.24523 3.16411,-2.639634 4.6742,-3.1728019 1.40657,-0.4966152 4.74157,-0.6925395 6.29587,-0.369869 3.08381,0.6401969 5.36571,2.9462149 6.1732,6.2384559 0.3107,1.266742 0.43313,5.320638 0.17338,5.740922 -0.10625,0.171911 -1.9578,0.222629 -8.12755,0.222629 h -7.98996 l 0.0779,1.658587 c 0.11934,2.542379 1.05274,3.92871 3.04316,4.519798 2.80127,0.83189 5.84333,-0.156815 6.80824,-2.212759 l 0.42367,-0.902712 2.2782,-0.0074 2.27821,-0.0073 -0.26143,0.740962 c -0.67471,1.91234 -2.32786,3.911655 -4.02602,4.869069 -2.10533,1.186966 -5.77792,1.670516 -8.33777,1.097787 z m 9.41361,-14.065154 c 0,-0.732982 -0.11642,-1.54002 -0.27805,-1.927548 -0.36764,-0.881447 -1.25622,-1.797445 -2.14259,-2.208706 -0.94256,-0.437328 -3.26448,-0.458487 -4.49556,-0.04096 -1.6002,0.54271 -3.62083,2.972349 -4.11739,4.950825 l -0.12231,0.4873 h 5.57795 5.57795 z"
       id="path1472" /><path
       style="fill:#7f00ff;fill-opacity:1;stroke-width:0.179307"
       d="m 185.33335,30.616627 c 0.0553,-0.271202 1.04545,-5.051968 2.20037,-10.623925 l 2.09985,-10.130831 2.1664,-0.050171 2.16639,-0.050171 -0.43263,2.004131 c -0.23795,1.102272 -0.40649,2.082584 -0.37453,2.178471 0.032,0.09589 0.4656,-0.384145 0.96364,-1.066738 1.09595,-1.502075 2.11491,-2.364052 3.65696,-3.0935596 1.03469,-0.4894825 1.34153,-0.5492689 2.81962,-0.5493949 0.94174,-8.03e-5 1.65859,0.074354 1.65859,0.1722216 0,0.1456792 -0.16968,0.9265609 -0.80553,3.7071589 -0.0812,0.35503 -0.22288,0.388048 -1.93758,0.451522 -1.64574,0.06092 -1.97957,0.132281 -3.02391,0.646409 -2.09306,1.030408 -3.46491,2.928823 -4.33341,5.996732 -0.23163,0.818199 -0.8577,3.605576 -1.39127,6.194172 l -0.97012,4.706537 -2.28168,2.66e-4 -2.28168,2.63e-4 z"
       id="path1474" /><path
       style="fill:#7f00ff;fill-opacity:1;stroke-width:0.0896534"
       d="m 10.470651,25.394318 c -0.267494,-0.350299 -0.7767342,-1.763676 -0.7821583,-2.170849 -0.00574,-0.430981 0.0058,-0.451537 0.3657883,-0.651568 0.204445,-0.113601 1.434937,-0.633325 2.734428,-1.154942 2.527081,-1.014372 3.892333,-1.654038 4.552109,-2.132816 0.63588,-0.461436 0.803045,-0.5328 0.954201,-0.407352 0.07081,0.05877 0.128749,0.207406 0.128749,0.330304 0,0.456572 -2.085225,2.323136 -5.289549,4.734875 -2.008449,1.511662 -2.439004,1.746428 -2.663568,1.452348 z"
       id="path1653" /><path
       style="fill:#7f00ff;fill-opacity:1;stroke-width:0.0896534"
       d="m 8.5560365,21.763356 c -0.1391441,-0.727047 -0.1645146,-2.308662 -0.038966,-2.429168 0.049309,-0.04733 1.46135,-0.272869 3.1378685,-0.5012 3.226035,-0.439365 5.096983,-0.776484 5.518195,-0.994301 0.140549,-0.07268 0.358406,-0.132146 0.484128,-0.132146 0.192751,0 0.228586,0.04098 0.228586,0.261427 0,0.344737 -0.388711,0.649873 -1.712193,1.344064 -1.657046,0.869151 -6.9323061,3.056485 -7.3714195,3.056485 -0.089758,0 -0.166468,-0.188556 -0.246199,-0.605161 z"
       id="path1655" /><path
       style="fill:#7f00ff;fill-opacity:1;stroke-width:0.0896534"
       d="m 7.6653634,18.38867 c 0,-0.451954 0.2425856,-1.591097 0.4659818,-2.188177 l 0.1839275,-0.49159 0.7732992,0.05546 c 0.4253145,0.0305 1.8424161,0.204649 3.1491131,0.386988 1.95294,0.272517 2.651082,0.332631 3.922335,0.337735 l 1.546521,0.0062 V 16.7284 c 0,0.35447 -0.251218,0.512949 -1.191022,0.75135 -1.641157,0.416314 -6.049609,1.075551 -7.9312085,1.186029 l -0.9189471,0.05396 z"
       id="path1657" /><path
       style="fill:#7f00ff;fill-opacity:1;stroke-width:0.0896534"
       d="m 14.030753,15.856807 c -0.172583,-0.01996 -0.858431,-0.09924 -1.524107,-0.176168 -1.47238,-0.170154 -4.6738217,-0.729337 -4.7792584,-0.834774 -0.1437271,-0.143727 0.8762685,-2.195468 1.2674338,-2.549468 0.1537332,-0.139127 0.1976243,-0.137684 0.6609657,0.02173 0.2729637,0.09391 1.5001159,0.583463 2.7270049,1.087888 2.941029,1.20918 3.675116,1.476968 5.166856,1.884818 0.380336,0.103986 0.435077,0.291655 0.13448,0.461043 -0.197985,0.111566 -2.920146,0.189752 -3.653375,0.104931 z"
       id="path1659" /><path
       style="fill:#7f00ff;fill-opacity:1;stroke-width:0.0896534"
       d="m 17.168621,14.603499 c -0.320511,-0.06956 -0.905499,-0.233541 -1.299974,-0.364397 -1.501135,-0.497959 -5.427074,-2.169766 -6.6472306,-2.83063 l -0.4818655,-0.26099 0.1577199,-0.271231 c 0.23297,-0.400638 1.5199262,-1.9260344 1.6752592,-1.9856411 0.151874,-0.058279 0.735283,0.3460256 2.998506,2.0779771 2.52218,1.93012 3.737227,2.769111 4.315824,2.980078 0.59014,0.215176 0.691003,0.412255 0.337653,0.659751 -0.232432,0.162802 -0.28423,0.162561 -1.055892,-0.0049 z"
       id="path1661" /><path
       style="fill:#7f00ff;fill-opacity:1;stroke-width:0.0896534"
       d="M 17.766784,13.311506 C 16.064996,12.27468 12.504863,9.6027043 10.982538,8.2197456 l -0.40344,-0.3665059 0.26896,-0.2313708 c 0.449615,-0.3867774 1.502615,-1.1267263 1.879926,-1.3210344 l 0.355819,-0.1832398 0.397296,0.4376842 c 0.218512,0.2407263 1.080895,1.3183416 1.916405,2.3947006 1.880944,2.4231575 2.729793,3.4384895 3.275678,3.9181325 0.523582,0.460048 0.590514,0.574758 0.468449,0.802839 -0.153663,0.287122 -0.433834,0.213873 -1.374847,-0.359445 z"
       id="path1663" /><path
       style="fill:#7f00ff;fill-opacity:1;stroke-width:0.0896534"
       d="M 18.524586,11.946312 C 17.356063,10.644365 16.252969,9.2801221 14.881887,7.44123 13.75582,5.9309527 13.362525,5.3006725 13.432459,5.1184288 c 0.04856,-0.1265331 1.577493,-0.7591 2.293995,-0.9490939 0.354074,-0.093889 0.405809,-0.08764 0.491515,0.059373 0.196114,0.3363992 0.883098,1.8891138 1.438857,3.2520875 0.898201,2.2028014 1.6771,3.8502166 2.137421,4.5207666 0.232424,0.338572 0.422589,0.646598 0.422589,0.684503 0,0.09827 -0.416847,0.358501 -0.574252,0.358501 -0.07276,0 -0.57586,-0.494214 -1.117998,-1.098254 z"
       id="path1665" /><path
       style="fill:#7f00ff;fill-opacity:1;stroke-width:0.0896534"
       d="M 20.867106,12.407843 C 20.596988,12.30792 20.216938,11.756327 19.646707,10.636593 18.518571,8.4213313 16.53046,3.4334041 16.7045,3.2549584 16.89033,3.064425 19.512866,2.8885266 19.674946,3.0557251 c 0.0438,0.045179 0.224315,1.2117755 0.401155,2.5924374 0.500252,3.9056687 0.663335,4.7511335 1.273008,6.5995905 0.0581,0.176162 -0.203592,0.263081 -0.482003,0.16009 z"
       id="path1667" /><path
       style="fill:#7f00ff;fill-opacity:1;stroke-width:0.0896534"
       d="M 21.895286,12.080327 C 21.548964,11.697645 21.059846,9.2915684 20.66974,6.0516027 20.425708,4.024835 20.278758,2.2840076 20.346024,2.2167416 c 0.09432,-0.094317 1.398049,0.1335771 2.179386,0.3809598 l 0.73964,0.2341808 v 0.5242701 c 0,0.5508829 -0.165901,1.8570889 -0.632714,4.9816114 -0.279606,1.8714943 -0.289304,2.1594273 -0.117006,3.4740683 0.05572,0.425116 0.05535,0.425853 -0.210912,0.425853 -0.146699,0 -0.330808,-0.07081 -0.409132,-0.157358 z"
       id="path1669" /><path
       style="fill:#7f00ff;fill-opacity:1;stroke-width:0.0896534"
       d="m 23.169959,12.365613 c -0.170638,-0.205606 -0.212653,-1.475405 -0.09251,-2.7959115 0.248235,-2.7283986 0.890203,-7.1254694 1.065973,-7.30124 0.107292,-0.1072915 0.846234,0.1906399 1.713392,0.6908164 1.010021,0.5825797 1.033952,0.618222 0.824277,1.2276534 -0.09391,0.2729638 -0.578593,1.4885673 -1.077065,2.7013412 -1.060069,2.579125 -1.637409,4.1234435 -1.798766,4.8114925 -0.189478,0.807961 -0.364831,0.991745 -0.635301,0.665848 z"
       id="path1671" /><path
       style="fill:#7f00ff;fill-opacity:1;stroke-width:0.0896534"
       d="m 24.408131,12.947567 c -0.09784,-0.05688 -0.156808,-0.19922 -0.156667,-0.378136 3.27e-4,-0.414855 0.366271,-1.718175 0.873502,-3.1110001 0.57954,-1.5913835 2.33093,-5.684569 2.553234,-5.9671828 l 0.174455,-0.2217837 0.363804,0.203162 c 0.200092,0.111739 0.729526,0.5494082 1.176521,0.9725982 l 0.812719,0.7694363 -0.350515,0.4857109 c -0.192783,0.267141 -0.980205,1.3127633 -1.749826,2.3236051 -1.894326,2.4880581 -2.621932,3.5243881 -3.022803,4.3053861 -0.359483,0.700362 -0.426871,0.762132 -0.674424,0.618204 z"
       id="path1673" /><path
       style="fill:#7f00ff;fill-opacity:1;stroke-width:0.0896534"
       d="m 25.345009,13.654209 c -0.203355,-0.203355 -0.106708,-0.578339 0.343536,-1.332897 0.819254,-1.372978 2.914371,-4.2091614 4.55808,-6.1703231 l 0.855967,-1.0212809 0.399375,0.438534 c 0.219657,0.2411937 0.620886,0.7770929 0.891621,1.1908872 0.379504,0.5800393 0.471805,0.7853754 0.403,0.8965337 -0.131538,0.2125073 -1.129352,1.0371553 -2.804085,2.31745 -1.923482,1.4704561 -3.338222,2.6549421 -3.923249,3.2847231 -0.496549,0.534534 -0.554415,0.566203 -0.724245,0.396373 z"
       id="path1675" /><path
       style="fill:#7f00ff;fill-opacity:1;stroke-width:0.0896534"
       d="m 26.027643,14.523081 c -0.08023,-0.176085 -0.07495,-0.276413 0.02434,-0.462228 0.432102,-0.808712 7.184055,-6.1265295 7.778763,-6.1265295 0.123257,0 0.449822,0.7087461 0.839231,1.82139 0.236553,0.6758935 0.258461,0.8081515 0.151251,0.9130965 -0.149088,0.145938 -1.900895,0.926273 -4.448961,1.98177 -2.264729,0.93813 -2.902055,1.255201 -3.47552,1.729086 -0.513867,0.424635 -0.725087,0.459489 -0.8691,0.143415 z"
       id="path1677" /><path
       style="fill:#7f00ff;fill-opacity:1;stroke-width:0.0896534"
       d="m 26.552341,15.853705 c -0.03287,-0.03287 -0.05977,-0.174891 -0.05977,-0.315596 0,-0.217512 0.09063,-0.314287 0.60516,-0.646179 1.032044,-0.665711 2.739271,-1.474314 5.267136,-2.494701 1.858668,-0.750262 3.299879,-1.243714 3.384712,-1.158881 0.182777,0.182777 0.421319,2.818686 0.263889,2.915983 -0.157784,0.09752 -0.888388,0.214389 -3.688412,0.590029 -2.898518,0.388853 -4.096496,0.615932 -5.03456,0.95431 -0.665114,0.23992 -0.655327,0.237865 -0.738156,0.155035 z"
       id="path1679" /><path
       style="fill:#7f00ff;fill-opacity:1;stroke-width:0.0896534"
       d="m 34.426895,17.732389 c -0.147928,-0.02032 -1.317904,-0.199381 -2.599948,-0.397921 -2.394285,-0.370784 -3.525688,-0.448928 -4.505082,-0.31116 l -0.560333,0.07882 v -0.266645 c 0,-0.146655 0.07081,-0.330729 0.157358,-0.409053 0.246035,-0.222658 1.545381,-0.561963 3.121876,-0.815231 1.324642,-0.212808 6.33702,-0.863219 6.652371,-0.863219 0.312752,0 -0.154195,2.592343 -0.520353,2.88884 -0.151949,0.123042 -0.342733,0.156312 -0.836874,0.145942 -0.35203,-0.0074 -0.761087,-0.03006 -0.909015,-0.05037 z"
       id="path1681" /><path
       style="fill:#7f00ff;fill-opacity:1;stroke-width:0.0896534"
       d="M 19.768569,32.675645 C 16.257209,32.19559 12.545787,30.163846 10.17004,27.421122 8.4645987,25.452247 7.2108628,23.058969 6.6051412,20.616025 6.3557724,19.610293 6.3189491,19.358681 6.2338953,18.07931 6.1365981,16.615775 6.2651391,14.543282 6.5350412,13.223873 7.3789567,9.0984109 10.256367,5.1628273 14.126253,2.8409771 c 1.513541,-0.9080932 4.084094,-1.87787829 5.49191,-2.07191681 0.880043,-0.12129592 4.467473,-0.12332274 5.305475,-0.002997 0.97139,0.13947799 2.910831,0.83231171 4.393015,1.56933351 2.625205,1.3053936 4.685646,3.0910294 6.244334,5.4115159 1.447822,2.1554355 2.2853,4.3484513 2.588001,6.7769333 0.130611,1.047862 0.130601,3.649017 -1.7e-5,4.619087 -0.351675,2.61178 -1.535148,5.352284 -3.269181,7.570266 -0.758223,0.969834 -2.331372,2.468075 -3.369683,3.209228 -1.013327,0.723321 -3.032567,1.749306 -4.201469,2.134787 -1.616991,0.533252 -2.346927,0.63573 -4.760815,0.668387 -1.208079,0.01634 -2.458743,-0.0061 -2.779254,-0.04996 z m 5.295965,-1.151462 c 1.225336,-0.214744 2.673531,-0.712528 3.955305,-1.359544 3.063681,-1.546492 5.173026,-3.733842 6.739993,-6.989242 1.184204,-2.460202 1.427148,-3.551418 1.427148,-6.410216 0,-2.85534 -0.243532,-3.951452 -1.421606,-6.398498 C 34.140054,6.9906409 32.000864,4.8127799 28.790384,3.2656038 26.420932,2.1237313 24.940011,1.8101776 21.92025,1.8109988 20.324826,1.8114291 19.84595,1.8428566 19.140995,1.993374 17.630553,2.3158739 15.22101,3.4072712 13.462033,4.5656483 10.559095,6.477382 8.2655908,10.104045 7.4229069,14.115174 7.2207228,15.077558 7.1863705,15.46242 7.1863705,16.765181 c 0,1.30276 0.034352,1.687622 0.2365364,2.650006 0.6861999,3.266274 2.2820351,6.216706 4.4960621,8.312468 1.938921,1.835349 5.569168,3.615166 8.073733,3.958342 1.01565,0.139165 3.874964,0.04794 5.071832,-0.161814 z"
       id="path1685" /><path
       style="fill:#7f00ff;fill-opacity:1;stroke-width:0.0896534"
       d="m 34.382069,21.07343 c -0.41913,-0.163758 -1.62945,-0.660157 -2.689602,-1.103109 -2.360051,-0.986075 -3.573692,-1.426565 -4.412172,-1.601393 -0.352053,-0.07341 -0.673313,-0.153993 -0.71391,-0.179083 -0.122644,-0.0758 -0.083,-0.364074 0.06722,-0.488742 0.207888,-0.172531 1.472403,-0.211774 2.836906,-0.08804 2.365805,0.214532 6.637988,0.81305 7.130102,0.998901 l 0.201344,0.07604 -0.185004,0.473042 c -0.517416,1.323007 -1.07228,2.229331 -1.356482,2.215705 -0.06399,-0.0031 -0.459272,-0.139562 -0.878401,-0.303321 z"
       id="path1687" /><path
       style="fill:#7f00ff;fill-opacity:1;stroke-width:0.0896534"
       d="m 33.440708,24.485101 c -5.538275,-4.241504 -6.130258,-4.669838 -6.715361,-4.858944 -0.619479,-0.200218 -0.742224,-0.324397 -0.60921,-0.61633 0.08027,-0.176168 0.169896,-0.227445 0.397556,-0.227445 0.341554,0 1.52753,0.316436 2.479279,0.661508 1.843411,0.668359 5.803731,2.365054 6.446452,2.761814 0.291427,0.179901 0.293331,0.185401 0.145039,0.4191 -0.441498,0.695772 -1.648619,2.080029 -1.80554,2.07049 -0.03809,-0.0023 -0.190287,-0.0969 -0.338215,-0.210193 z"
       id="path1689" /><path
       style="fill:#7f00ff;fill-opacity:1;stroke-width:0.0896534"
       d="m 30.860959,26.828772 c -0.268432,-0.308184 -1.065023,-1.306698 -1.770204,-2.218921 -1.896307,-2.453068 -2.292484,-2.928718 -3.11947,-3.745226 -0.762557,-0.752896 -0.827654,-0.901916 -0.476165,-1.090028 0.337875,-0.180825 1.740846,0.678204 4.53876,2.779046 1.677062,1.259239 3.810268,3.002912 3.810268,3.114496 0,0.166281 -2.19459,1.720966 -2.429311,1.720966 -0.0362,0 -0.285446,-0.25215 -0.553878,-0.560333 z"
       id="path1691" /><path
       style="fill:#7f00ff;fill-opacity:1;stroke-width:0.0896534"
       d="m 28.082987,29.02528 c -0.127132,-0.23422 -0.673029,-1.515763 -1.213105,-2.847873 -1.04502,-2.577569 -1.652627,-3.87238 -2.123943,-4.526117 -0.45532,-0.631552 -0.525116,-0.796688 -0.400292,-0.947092 0.233085,-0.28085 0.535897,-0.146037 1.271468,0.566065 1.366113,1.322526 5.447779,6.623537 5.447779,7.075233 0,0.169285 -2.233813,1.105637 -2.63767,1.105637 -0.0622,0 -0.217105,-0.191634 -0.344237,-0.425853 z"
       id="path1693" /><path
       style="fill:#7f00ff;fill-opacity:1;stroke-width:0.0896534"
       d="m 24.658652,30.200448 c -0.391189,-3.657394 -1.065094,-7.81817 -1.358542,-8.387813 -0.199528,-0.387325 -0.161666,-0.671299 0.09607,-0.720569 0.369478,-0.07063 0.663792,0.34936 1.705841,2.434254 0.749079,1.498731 1.529243,3.29227 2.136115,4.910771 0.745952,1.989422 0.738268,2.008472 -0.847103,2.10011 -0.609832,0.03525 -1.236456,0.09207 -1.392498,0.12626 l -0.283714,0.06217 z"
       id="path1695" /><path
       style="fill:#7f00ff;fill-opacity:1;stroke-width:0.0896534"
       d="m 22.59265,31.157581 c -1.050726,-0.189396 -1.343863,-0.29238 -1.423583,-0.500127 -0.08109,-0.21133 0.319279,-3.431969 0.758937,-6.104954 0.185688,-1.128924 0.189897,-1.596586 0.0255,-2.83397 -0.0565,-0.425287 -0.05622,-0.425854 0.210148,-0.425854 0.146699,0 0.334693,0.0751 0.417765,0.166897 0.391939,0.433089 1.135252,4.672907 1.632895,9.313947 l 0.06008,0.560334 -0.392607,-0.0073 c -0.215934,-0.004 -0.796047,-0.08006 -1.289141,-0.168939 z"
       id="path1697" /><path
       style="fill:#7f00ff;fill-opacity:1;stroke-width:0.0896534"
       d="m 19.371203,30.965467 c -0.879632,-0.400087 -1.754315,-0.927227 -1.754315,-1.057263 0,-0.123451 0.52796,-1.479563 1.207606,-3.101845 0.856915,-2.045413 1.544293,-3.897385 1.759714,-4.741119 0.262787,-1.02925 0.436399,-1.195781 0.668216,-0.640963 0.341723,0.817857 0.0448,4.697249 -0.68985,9.013043 -0.10123,0.594687 -0.212,0.898166 -0.326479,0.894458 -0.03525,-0.0011 -0.424449,-0.165982 -0.864892,-0.366311 z"
       id="path1699" /><path
       style="fill:#7f00ff;fill-opacity:1;stroke-width:0.0896534"
       d="m 16.146677,29.976431 c -0.239922,-0.158918 -0.762054,-0.598157 -1.160294,-0.976088 l -0.724071,-0.687147 0.489381,-0.661988 c 0.269159,-0.364093 1.147524,-1.527215 1.951922,-2.584714 1.720494,-2.261842 2.545334,-3.485626 2.724865,-4.042778 0.144186,-0.447465 0.38957,-0.565284 0.64511,-0.309745 0.165518,0.165518 0.149381,0.342919 -0.135976,1.494834 -0.379683,1.532685 -2.688983,7.170955 -3.23401,7.895994 -0.11382,0.151413 -0.14559,0.14409 -0.556927,-0.128368 z"
       id="path1701" /><path
       style="fill:#7f00ff;fill-opacity:1;stroke-width:0.0896534"
       d="m 12.854641,27.906772 c -0.648586,-0.777852 -1.154876,-1.58083 -1.154876,-1.83164 0,-0.272794 0.449589,-0.704979 1.921244,-1.846872 3.083634,-2.392667 3.647811,-2.852963 4.393259,-3.584337 0.440451,-0.432135 0.832875,-0.785701 0.872054,-0.785701 0.03918,0 0.13672,0.09995 0.21676,0.222103 0.136404,0.208179 0.13346,0.247032 -0.04697,0.61975 -0.26325,0.543803 -1.478168,2.35028 -2.599311,3.864949 -1.000391,1.351533 -2.913843,3.768707 -3.049898,3.852794 -0.04579,0.0283 -0.294302,-0.201674 -0.552262,-0.511046 z"
       id="path1703" /><path
       style="fill:#7f00ff;fill-opacity:1;stroke-width:0.0896534"
       d="M 21.443915,20.297072 C 19.971097,20.084552 18.701756,18.64421 18.618,17.090461 c -0.116386,-2.159083 1.433059,-3.885266 3.481424,-3.878534 1.143583,0.0038 1.994113,0.372821 2.720122,1.180317 1.380654,1.53562 1.319819,3.715093 -0.14146,5.06798 -0.419587,0.388463 -0.642775,0.519106 -1.125119,0.658586 -0.752036,0.217468 -1.436447,0.275316 -2.109052,0.178262 z m 0.297028,-1.572697 c 0,-0.0319 -0.135411,-0.223537 -0.300914,-0.425853 -0.744072,-0.909578 -0.878445,-1.643213 -0.417515,-2.279508 0.485306,-0.669945 1.397088,-0.943109 2.039358,-0.610978 0.935393,0.48371 0.615754,1.989105 -0.416115,1.959767 -0.416437,-0.01184 -0.635854,-0.170684 -0.635854,-0.460319 0,-0.283557 0.09719,-0.387359 0.493094,-0.526628 l 0.26896,-0.09461 -0.3362,-0.0071 c -0.437188,-0.0092 -0.694814,0.238998 -0.694814,0.669398 0,0.635344 0.691173,0.961502 1.333577,0.629302 0.300203,-0.155241 0.866705,-0.766236 0.948039,-1.022499 0.104922,-0.330578 -0.112168,-0.883153 -0.459415,-1.169383 -0.841133,-0.693333 -2.201581,-0.517107 -2.782291,0.360406 -0.424487,0.641443 -0.383689,1.767108 0.08842,2.439705 0.238461,0.339724 0.871667,0.730749 0.871667,0.538281 z"
       id="path1705" /></g></svg>